<svg xmlns="http://www.w3.org/2000/svg" viewBox="804 251 314 96"><defs><style>.a,.b{fill:#fff;}.a{font-size:70px;font-family:OpenSans-Bold, Open Sans;font-weight:700;}</style></defs><g transform="translate(735 208)"><text class="a" transform="translate(169 118)"><tspan x="0" y="0">Equal.</tspan></text><path class="b" d="M53.324,65.381H20a20.022,20.022,0,0,1-20-20V20A20.022,20.022,0,0,1,20,0H53.324a20.022,20.022,0,0,1,20,20V45.381A20.022,20.022,0,0,1,53.324,65.381ZM19.858,38.993a5.194,5.194,0,1,0,0,10.388H53.771a5.194,5.194,0,0,0,0-10.388Zm0-22.608a5.194,5.194,0,1,0,0,10.388H53.771a5.194,5.194,0,0,0,0-10.388Z" transform="translate(69 60)"/></g></svg>